# xmcd
#
# Track frame offsets:
#	150
#	13002
#	25410
#	45447
#	58522
#	72890
#	87022
#	101290
#	113625
#	127440
#	138582
#	152335
#
# Disc length: 2243 seconds
# Revision: 0
# Processed by: cddbd v1.5.2PL0 Copyright (c) Steve Scherf et al.
# Submitted via: dBpowerAMP V12.0
#
DISCID=9608c10c
DTITLE=Lynn Morris - You'll Never Be the Sun
DYEAR=1999
DGENRE=Bluegrass
TTITLE0=The Likes of You
TTITLE1=Love Beyond
TTITLE2=You'll Never Be the Sun
TTITLE3=Destination Love
TTITLE4=Twister
TTITLE5=If Teardrops Were Pennies
TTITLE6=Long Train of Fools
TTITLE7=Scraps from Your Table
TTITLE8=Thy Burdens Are Greater Than Mine
TTITLE9=Wrong Road Again
TTITLE10=Seventeen Cents
TTITLE11=The River
EXTD=
EXTT0=
EXTT1=
EXTT2=
EXTT3=
EXTT4=
EXTT5=
EXTT6=
EXTT7=
EXTT8=
EXTT9=
EXTT10=
EXTT11=
PLAYORDER=
